<svg width="90" height="80" viewBox="0 0 85 72" fill="none" xmlns="http://www.w3.org/2000/svg">
<path d="M42.2458 66.7518C35.2492 71.9045 31.9979 71.5506 25.9888 65.7584C17.524 57.5992 9.83925 48.6373 0.349501 41.1997C0 37.8635 0 34.5022 0 30.6829C5.13175 26.6299 8.85013 21.5654 13.3712 17.3312C17.472 13.4908 21.3244 9.38587 25.3103 5.4217C30.416 0.343826 34.8802 -0.267247 41.6834 3.28277C43.65 5.70455 42.3785 7.43481 40.8576 9.09801C38.0591 12.1584 35.094 15.0583 32.1357 17.9597C29.6237 20.4233 28.2519 23.2667 28.4222 26.8273C28.4855 28.1495 28.5631 29.4992 28.3894 30.8028C26.7278 43.2709 29.2196 54.0885 40.2269 61.7418C41.6687 62.7443 42.9413 64.2729 42.2458 66.7518Z" fill="#1D434F"/>
<path d="M42.3774 67.2526C37.657 62.5761 33.3613 57.9484 28.8002 53.599C26.6875 51.5843 25.892 49.4911 25.9598 46.614C26.1358 39.1377 26.1268 31.6525 25.9738 24.1754C25.9215 21.6215 26.7998 19.8656 28.5164 18.0517C32.9448 13.3722 38.2575 9.5166 41.9132 3.67578C48.115 -1.39225 52.1278 -1.24657 57.4755 4.28053C65.8674 12.9538 75.0439 20.8561 82.6689 30.2915C85.7413 34.0935 85.5463 37.1561 82.1859 40.5813C73.5025 49.4319 65.0023 58.462 56.3459 67.3393C51.0824 72.7371 48.19 72.682 42.3774 67.2526Z" fill="#0179F2"/>
<path d="M59.7492 12.475C66.0049 18.7315 72.0421 24.707 78.0051 30.7558C81.9187 34.7256 81.9936 36.6226 78.2374 40.4299C70.2836 48.4919 62.2474 56.4727 54.2188 64.4605C53.1881 65.486 52.1746 67.1026 50.516 66.5324C48.4843 65.834 48.9387 63.7267 49.0736 62.188C49.8711 53.0954 49.5151 43.9381 49.521 34.8744C49.5267 26.254 50.5082 17.6498 50.0139 9.02955C49.9414 7.76465 49.5414 6.06646 50.916 5.37477C52.6905 4.48193 53.5016 6.3751 54.5306 7.30358C56.2594 8.8636 57.8503 10.5765 59.7492 12.475Z" fill="#1785F3"/>
</svg>
