<svg width="864" height="965" viewBox="0 0 864 965" fill="none" xmlns="http://www.w3.org/2000/svg">
<path d="M844.994 235.027C854.372 247.364 859.649 261.291 861.752 276.239C862.474 281.378 863.018 286.706 863.017 292C862.998 416.661 863.064 541.323 862.95 665.984C862.926 690.952 856.576 714.193 840.454 733.762C832.176 743.81 822.11 752.114 810.692 758.706C791.271 769.92 772 781.395 752.672 792.769C736.424 802.331 720.163 811.871 703.945 821.484C686.609 831.759 669.352 842.167 651.996 852.406C634.5 862.728 616.885 872.85 599.393 883.177C577.837 895.904 556.547 909.095 534.779 921.446C515.269 932.516 496.569 944.996 476.485 955.051C463.452 961.577 449.59 964.869 434.535 964.894C431.363 962.38 431.981 959.063 431.979 955.963C431.945 900.066 431.948 844.169 431.977 788.271C431.978 784.459 431.57 780.617 432.614 776.405C434.359 773.102 437.246 772.627 440.041 772.289C448.643 771.249 456.453 768.092 463.847 763.742C528.302 725.825 592.493 687.453 657.18 649.935C680.678 636.306 691.181 616.34 691.156 589.837C691.101 532.207 691.138 474.577 691.139 416.947C691.139 403.122 691.193 389.297 691.124 375.473C691.057 362.043 689.875 348.83 682.732 336.924C682.305 336.214 682.128 335.376 681.971 334.154C682.438 330.239 685.44 329.096 687.946 327.581C721.539 307.268 755.399 287.4 788.998 267.096C805.513 257.116 822.235 247.485 838.73 237.471C840.558 236.361 842.31 234.985 844.994 235.027Z" fill="#4285F4"/>
<path d="M844.994 235.027C854.372 247.364 859.649 261.291 861.752 276.239C862.474 281.378 863.018 286.706 863.017 292C862.998 416.661 863.064 541.323 862.95 665.984C862.926 690.952 856.576 714.193 840.454 733.762C832.176 743.81 822.11 752.114 810.692 758.706C791.271 769.92 772 781.395 752.672 792.769C736.424 802.331 720.163 811.871 703.945 821.484C686.609 831.759 669.352 842.167 651.996 852.406C634.5 862.728 616.885 872.85 599.393 883.177C577.837 895.904 556.547 909.095 534.779 921.446C515.269 932.516 496.569 944.996 476.485 955.051C463.452 961.577 449.59 964.869 434.535 964.894C431.363 962.38 431.981 959.063 431.979 955.963C431.945 900.066 431.948 844.169 431.977 788.271C431.978 784.459 431.57 780.617 432.614 776.405C434.359 773.102 437.246 772.627 440.041 772.289C448.643 771.249 456.453 768.092 463.847 763.742C528.302 725.825 592.493 687.453 657.18 649.935C680.678 636.306 691.181 616.34 691.156 589.837C691.101 532.207 691.138 474.577 691.139 416.947C691.139 403.122 691.193 389.297 691.124 375.473C691.057 362.043 689.875 348.83 682.732 336.924C682.305 336.214 682.128 335.376 681.971 334.154C682.438 330.239 685.44 329.096 687.946 327.581C721.539 307.268 755.399 287.4 788.998 267.096C805.513 257.116 822.235 247.485 838.73 237.471C840.558 236.361 842.31 234.985 844.994 235.027Z" fill="#4285F4"/>
<path d="M844.994 235.027C854.372 247.364 859.649 261.291 861.752 276.239C862.474 281.378 863.018 286.706 863.017 292C862.998 416.661 863.064 541.323 862.95 665.984C862.926 690.952 856.576 714.193 840.454 733.762C832.176 743.81 822.11 752.114 810.692 758.706C791.271 769.92 772 781.395 752.672 792.769C736.424 802.331 720.163 811.871 703.945 821.484C686.609 831.759 669.352 842.167 651.996 852.406C634.5 862.728 616.885 872.85 599.393 883.177C577.837 895.904 556.547 909.095 534.779 921.446C515.269 932.516 496.569 944.996 476.485 955.051C463.452 961.577 449.59 964.869 434.535 964.894C431.363 962.38 431.981 959.063 431.979 955.963C431.945 900.066 431.948 844.169 431.977 788.271C431.978 784.459 431.57 780.617 432.614 776.405C434.359 773.102 437.246 772.627 440.041 772.289C448.643 771.249 456.453 768.092 463.847 763.742C528.302 725.825 592.493 687.453 657.18 649.935C680.678 636.306 691.181 616.34 691.156 589.837C691.101 532.207 691.138 474.577 691.139 416.947C691.139 403.122 691.193 389.297 691.124 375.473C691.057 362.043 689.875 348.83 682.732 336.924C682.305 336.214 682.128 335.376 681.971 334.154C682.438 330.239 685.44 329.096 687.946 327.581C721.539 307.268 755.399 287.4 788.998 267.096C805.513 257.116 822.235 247.485 838.73 237.471C840.558 236.361 842.31 234.985 844.994 235.027Z" fill="#4285F4"/>
<path d="M845.164 234.731C830.29 244.161 815.25 253.331 800.14 262.385C761.193 285.72 722.216 309.003 683.02 332.563C682.577 332.954 682.365 333.09 681.78 333.175C681.095 333 680.722 332.907 680.531 332.66C669.483 318.342 653.65 310.636 638.424 302.051C578.058 268.015 517.775 233.831 457.367 199.868C439.276 189.696 420.438 188.832 401.894 198.464C383.267 208.139 365.533 219.431 347.464 230.108C298.698 258.924 249.864 287.624 201.093 316.432C191.186 322.284 183.673 330.206 177.52 340.145C174.646 341.37 172.704 339.756 170.724 338.658C146.692 325.333 122.766 311.822 98.7754 298.424C71.7338 283.322 44.7794 268.064 17.6898 253.047C15.1252 251.625 12.1191 250.649 10.8264 247.271C15.5464 235.902 22.4228 226.596 31.4672 218.723C47.3951 204.859 66.6769 196.364 84.36 185.326C103.703 173.253 123.51 161.922 143.163 150.349C164.928 137.532 186.78 124.862 208.535 112.028C227.475 100.855 246.291 89.4714 265.238 78.3089C286.714 65.6559 308.306 53.1995 329.788 40.5554C345.655 31.2156 361.237 21.3732 377.304 12.395C388.885 5.9237 401.486 2.3907 414.842 0.740413C434.922 -1.74068 453.672 2.10322 471.397 10.9279C485.242 17.8212 498.522 25.8565 512.004 33.4718C523.928 40.2069 535.77 47.0853 547.672 53.86C566.791 64.7433 585.913 75.6212 605.064 86.4478C618.973 94.3113 632.95 102.056 646.864 109.911C666.593 121.049 686.281 132.257 706.006 143.4C719.919 151.259 733.885 159.024 747.789 166.898C766.933 177.741 785.889 188.928 805.228 199.41C815.122 204.773 824.146 211.239 832.14 218.91C836.909 223.486 841.631 228.475 845.164 234.731Z" fill="#3DDC84"/>
<path d="M845.164 234.731C830.29 244.161 815.25 253.331 800.14 262.385C761.193 285.72 722.216 309.003 683.02 332.563C682.577 332.954 682.365 333.09 681.78 333.175C681.095 333 680.722 332.907 680.531 332.66C669.483 318.342 653.65 310.636 638.424 302.051C578.058 268.015 517.775 233.831 457.367 199.868C439.276 189.696 420.438 188.832 401.894 198.464C383.267 208.139 365.533 219.431 347.464 230.108C298.698 258.924 249.864 287.624 201.093 316.432C191.186 322.284 183.673 330.206 177.52 340.145C174.646 341.37 172.704 339.756 170.724 338.658C146.692 325.333 122.766 311.822 98.7754 298.424C71.7338 283.322 44.7794 268.064 17.6898 253.047C15.1252 251.625 12.1191 250.649 10.8264 247.271C15.5464 235.902 22.4228 226.596 31.4672 218.723C47.3951 204.859 66.6769 196.364 84.36 185.326C103.703 173.253 123.51 161.922 143.163 150.349C164.928 137.532 186.78 124.862 208.535 112.028C227.475 100.855 246.291 89.4714 265.238 78.3089C286.714 65.6559 308.306 53.1995 329.788 40.5554C345.655 31.2156 361.237 21.3732 377.304 12.395C388.885 5.9237 401.486 2.3907 414.842 0.740413C434.922 -1.74068 453.672 2.10322 471.397 10.9279C485.242 17.8212 498.522 25.8565 512.004 33.4718C523.928 40.2069 535.77 47.0853 547.672 53.86C566.791 64.7433 585.913 75.6212 605.064 86.4478C618.973 94.3113 632.95 102.056 646.864 109.911C666.593 121.049 686.281 132.257 706.006 143.4C719.919 151.259 733.885 159.024 747.789 166.898C766.933 177.741 785.889 188.928 805.228 199.41C815.122 204.773 824.146 211.239 832.14 218.91C836.909 223.486 841.631 228.475 845.164 234.731Z" fill="#3DDC84"/>
<path d="M845.164 234.731C830.29 244.161 815.25 253.331 800.14 262.385C761.193 285.72 722.216 309.003 683.02 332.563C682.577 332.954 682.365 333.09 681.78 333.175C681.095 333 680.722 332.907 680.531 332.66C669.483 318.342 653.65 310.636 638.424 302.051C578.058 268.015 517.775 233.831 457.367 199.868C439.276 189.696 420.438 188.832 401.894 198.464C383.267 208.139 365.533 219.431 347.464 230.108C298.698 258.924 249.864 287.624 201.093 316.432C191.186 322.284 183.673 330.206 177.52 340.145C174.646 341.37 172.704 339.756 170.724 338.658C146.692 325.333 122.766 311.822 98.7754 298.424C71.7338 283.322 44.7794 268.064 17.6898 253.047C15.1252 251.625 12.1191 250.649 10.8264 247.271C15.5464 235.902 22.4228 226.596 31.4672 218.723C47.3951 204.859 66.6769 196.364 84.36 185.326C103.703 173.253 123.51 161.922 143.163 150.349C164.928 137.532 186.78 124.862 208.535 112.028C227.475 100.855 246.291 89.4714 265.238 78.3089C286.714 65.6559 308.306 53.1995 329.788 40.5554C345.655 31.2156 361.237 21.3732 377.304 12.395C388.885 5.9237 401.486 2.3907 414.842 0.740413C434.922 -1.74068 453.672 2.10322 471.397 10.9279C485.242 17.8212 498.522 25.8565 512.004 33.4718C523.928 40.2069 535.77 47.0853 547.672 53.86C566.791 64.7433 585.913 75.6212 605.064 86.4478C618.973 94.3113 632.95 102.056 646.864 109.911C666.593 121.049 686.281 132.257 706.006 143.4C719.919 151.259 733.885 159.024 747.789 166.898C766.933 177.741 785.889 188.928 805.228 199.41C815.122 204.773 824.146 211.239 832.14 218.91C836.909 223.486 841.631 228.475 845.164 234.731Z" fill="#3DDC84"/>
<path d="M10.6377 247.136C26.2247 255.612 41.517 264.385 56.8922 273.01C96.6698 295.324 136.484 317.572 176.626 339.93C177.11 340.26 177.251 340.507 177.419 341.18C172.261 354.574 171.839 368.176 171.851 381.892C171.915 457.053 171.896 532.214 171.867 607.374C171.862 620.828 175.489 632.683 186.093 641.714C189.94 644.99 194.442 647.201 198.79 649.645C247.166 676.83 295.421 704.228 343.752 731.491C362.766 742.216 381.743 753.004 400.789 763.671C408.854 768.188 417.261 771.664 426.604 772.501C428.736 772.692 430.927 772.9 433.565 774.349C434.124 778.898 434.015 782.885 434.012 786.872C433.972 845.899 433.947 904.925 434 964.41C415.562 965.129 398.445 960.492 382.334 951.203C357.741 937.023 332.816 923.42 308.099 909.454C281.507 894.429 255.026 879.208 228.434 864.185C206.028 851.527 183.49 839.102 161.084 826.444C134.491 811.421 107.996 796.226 81.422 781.17C65.0998 771.922 48.4931 763.155 32.4077 753.515C14.0999 742.544 3.73331 726.132 0.88785 704.809C-0.289228 695.989 0.0696434 687.213 0.0653864 678.423C0.00322235 550.133 -0.073194 421.843 0.144549 293.554C0.171633 277.588 2.84308 261.846 10.6377 247.136Z" fill="#083042"/>
<path d="M10.6377 247.136C26.2247 255.612 41.517 264.385 56.8922 273.01C96.6698 295.324 136.484 317.572 176.626 339.93C177.11 340.26 177.251 340.507 177.419 341.18C172.261 354.574 171.839 368.176 171.851 381.892C171.915 457.053 171.896 532.214 171.867 607.374C171.862 620.828 175.489 632.683 186.093 641.714C189.94 644.99 194.442 647.201 198.79 649.645C247.166 676.83 295.421 704.228 343.752 731.491C362.766 742.216 381.743 753.004 400.789 763.671C408.854 768.188 417.261 771.664 426.604 772.501C428.736 772.692 430.927 772.9 433.565 774.349C434.124 778.898 434.015 782.885 434.012 786.872C433.972 845.899 433.947 904.925 434 964.41C415.562 965.129 398.445 960.492 382.334 951.203C357.741 937.023 332.816 923.42 308.099 909.454C281.507 894.429 255.026 879.208 228.434 864.185C206.028 851.527 183.49 839.102 161.084 826.444C134.491 811.421 107.996 796.226 81.422 781.17C65.0998 771.922 48.4931 763.155 32.4077 753.515C14.0999 742.544 3.73331 726.132 0.88785 704.809C-0.289228 695.989 0.0696434 687.213 0.0653864 678.423C0.00322235 550.133 -0.073194 421.843 0.144549 293.554C0.171633 277.588 2.84308 261.846 10.6377 247.136Z" fill="#083042"/>
<path d="M10.6377 247.136C26.2247 255.612 41.517 264.385 56.8922 273.01C96.6698 295.324 136.484 317.572 176.626 339.93C177.11 340.26 177.251 340.507 177.419 341.18C172.261 354.574 171.839 368.176 171.851 381.892C171.915 457.053 171.896 532.214 171.867 607.374C171.862 620.828 175.489 632.683 186.093 641.714C189.94 644.99 194.442 647.201 198.79 649.645C247.166 676.83 295.421 704.228 343.752 731.491C362.766 742.216 381.743 753.004 400.789 763.671C408.854 768.188 417.261 771.664 426.604 772.501C428.736 772.692 430.927 772.9 433.565 774.349C434.124 778.898 434.015 782.885 434.012 786.872C433.972 845.899 433.947 904.925 434 964.41C415.562 965.129 398.445 960.492 382.334 951.203C357.741 937.023 332.816 923.42 308.099 909.454C281.507 894.429 255.026 879.208 228.434 864.185C206.028 851.527 183.49 839.102 161.084 826.444C134.491 811.421 107.996 796.226 81.422 781.17C65.0998 771.922 48.4931 763.155 32.4077 753.515C14.0999 742.544 3.73331 726.132 0.88785 704.809C-0.289228 695.989 0.0696434 687.213 0.0653864 678.423C0.00322235 550.133 -0.073194 421.843 0.144549 293.554C0.171633 277.588 2.84308 261.846 10.6377 247.136Z" fill="#083042"/>
<path d="M681.545 332.647C681.908 332.712 682.349 332.774 682.569 332.796C685.21 338.625 688.758 343.881 690.362 350.123C692.078 356.8 692.827 363.584 692.84 370.338C692.99 444.324 692.993 518.309 692.891 592.295C692.867 610.041 687.797 626.12 675.11 639.096C668.888 645.459 661.062 649.671 653.467 654.145C628.089 669.097 602.722 684.068 577.348 699.026C539.359 721.42 501.358 743.794 463.383 766.211C454.602 771.394 445.044 773.901 434.59 774.892C434.183 774.911 433.969 774.942 433.861 774.945C432.209 773.2 431.943 771.084 431.984 768.87C432.402 746.558 430.26 724.286 430.96 701.968C431.195 694.489 432.014 687.054 432.663 679.173C433.96 676.565 436.105 675.963 438.222 675.571C444.058 674.49 449.302 671.991 454.339 669.02C497.516 643.557 540.754 618.198 583.843 592.587C597.531 584.451 604.169 572.544 604.156 556.694C604.115 509.729 604.063 462.764 604.202 415.799C604.233 405.411 604.212 395.153 599.383 385.192C599.698 382.106 601.951 381.073 603.82 379.76C627.265 363.289 651.93 348.764 676.564 334.19C677.987 333.348 679.385 332.374 681.545 332.647Z" fill="#3870B2"/>
<path d="M681.545 332.647C681.908 332.712 682.349 332.774 682.569 332.796C685.21 338.625 688.758 343.881 690.362 350.123C692.078 356.8 692.827 363.584 692.84 370.338C692.99 444.324 692.993 518.309 692.891 592.295C692.867 610.041 687.797 626.12 675.11 639.096C668.888 645.459 661.062 649.671 653.467 654.145C628.089 669.097 602.722 684.068 577.348 699.026C539.359 721.42 501.358 743.794 463.383 766.211C454.602 771.394 445.044 773.901 434.59 774.892C434.183 774.911 433.969 774.942 433.861 774.945C432.209 773.2 431.943 771.084 431.984 768.87C432.402 746.558 430.26 724.286 430.96 701.968C431.195 694.489 432.014 687.054 432.663 679.173C433.96 676.565 436.105 675.963 438.222 675.571C444.058 674.49 449.302 671.991 454.339 669.02C497.516 643.557 540.754 618.198 583.843 592.587C597.531 584.451 604.169 572.544 604.156 556.694C604.115 509.729 604.063 462.764 604.202 415.799C604.233 405.411 604.212 395.153 599.383 385.192C599.698 382.106 601.951 381.073 603.82 379.76C627.265 363.289 651.93 348.764 676.564 334.19C677.987 333.348 679.385 332.374 681.545 332.647Z" fill="#3870B2"/>
<path d="M681.753 332.438C654.591 349.24 626.985 365.307 600.568 383.887C598.603 384.061 597.532 382.98 596.61 381.79C591.285 374.918 584.207 370.371 576.727 366.186C535.455 343.092 494.247 319.881 453.197 296.395C436.783 287.004 421.269 286.849 404.728 296.746C366.723 319.485 328.594 342.024 290.314 364.304C284.141 367.897 277.859 371.38 272.173 375.778C267.48 379.408 264.68 384.639 260.546 389.195C257.644 389.947 255.735 388.415 253.797 387.208C229.946 372.355 205.786 358.035 181.044 344.707C179.579 343.918 178.144 343.058 177.188 341.179C177.092 340.822 177.013 340.42 176.991 340.216C180.809 329.281 188.688 322.033 198.106 316.431C243.111 289.663 288.179 262.998 333.29 236.408C356.061 222.987 378.655 209.213 401.919 196.697C420.702 186.591 440.001 188.238 458.53 198.64C485.642 213.861 512.764 229.065 539.832 244.364C566.463 259.417 593.032 274.58 619.628 289.695C634.516 298.157 649.511 306.436 664.242 315.162C671.315 319.351 676.738 325.548 681.753 332.438Z" fill="#37BF6E"/>
<path d="M681.753 332.438C654.591 349.24 626.985 365.307 600.568 383.887C598.603 384.061 597.532 382.98 596.61 381.79C591.285 374.918 584.207 370.371 576.727 366.186C535.455 343.092 494.247 319.881 453.197 296.395C436.783 287.004 421.269 286.849 404.728 296.746C366.723 319.485 328.594 342.024 290.314 364.304C284.141 367.897 277.859 371.38 272.173 375.778C267.48 379.408 264.68 384.639 260.546 389.195C257.644 389.947 255.735 388.415 253.797 387.208C229.946 372.355 205.786 358.035 181.044 344.707C179.579 343.918 178.144 343.058 177.188 341.179C177.092 340.822 177.013 340.42 176.991 340.216C180.809 329.281 188.688 322.033 198.106 316.431C243.111 289.663 288.179 262.998 333.29 236.408C356.061 222.987 378.655 209.213 401.919 196.697C420.702 186.591 440.001 188.238 458.53 198.64C485.642 213.861 512.764 229.065 539.832 244.364C566.463 259.417 593.032 274.58 619.628 289.695C634.516 298.157 649.511 306.436 664.242 315.162C671.315 319.351 676.738 325.548 681.753 332.438Z" fill="#37BF6E"/>
<path d="M176.784 341.012C204.283 355.171 230.719 370.819 256.762 387.142C257.604 387.671 258.447 388.198 259.605 388.859C261.316 390.444 260.775 392.126 260.343 393.698C259.004 398.573 258.867 403.538 258.87 408.548C258.897 461.155 259.049 513.763 258.764 566.369C258.698 578.418 263.572 586.521 273.843 592.315C319.367 618 364.872 643.718 410.376 669.436C416.234 672.747 422.316 675.303 429.076 675.999C430.572 676.153 432.051 676.422 433.489 677.784C433.589 697.124 433.024 716.119 433.499 735.087C433.824 748.071 433.924 761.043 433.839 774.486C420.761 774.858 409.058 770.669 397.881 764.264C373.066 750.046 348.105 736.083 323.206 722.013C296.715 707.042 270.227 692.065 243.735 677.095C226.653 667.443 209.669 657.61 192.449 648.21C177.902 640.268 170.257 627.847 170.191 611.799C169.86 530.855 169.918 449.908 170.203 368.963C170.236 359.495 170.915 349.664 176.784 341.012Z" fill="#041619"/>
<path d="M176.784 341.012C204.283 355.171 230.719 370.819 256.762 387.142C257.605 387.671 258.447 388.198 259.605 388.859C261.316 390.444 260.775 392.126 260.343 393.698C259.004 398.573 258.867 403.538 258.87 408.548C258.897 461.155 259.049 513.763 258.764 566.369C258.698 578.418 263.572 586.521 273.843 592.315C319.367 618 364.872 643.718 410.376 669.436C416.234 672.747 422.316 675.303 429.077 675.999C430.572 676.153 432.051 676.422 433.489 677.784C433.589 697.124 433.025 716.119 433.499 735.087C433.824 748.071 433.924 761.043 433.839 774.486C420.761 774.858 409.059 770.669 397.881 764.264C373.066 750.046 348.106 736.083 323.206 722.013C296.715 707.042 270.227 692.065 243.735 677.095C226.653 667.443 209.669 657.61 192.45 648.21C177.903 640.268 170.257 627.847 170.192 611.799C169.861 530.855 169.918 449.908 170.203 368.963C170.237 359.495 170.915 349.664 176.784 341.012Z" fill="#041619"/>
<path d="M434.139 678.057C420.119 678.815 409.608 671.123 398.618 664.979C362.993 645.065 327.353 625.173 292.001 604.781C282.174 599.113 271.159 595.052 263.214 586.463C259.262 582.19 256.956 577.03 256.961 570.959C256.999 514.981 256.986 459.002 256.979 403.024C256.979 398.377 257.989 393.968 259.921 389.374C264.213 379.218 271.993 373.026 280.977 367.812C301.669 355.806 322.212 343.542 342.816 331.384C363.969 318.901 385.189 306.528 406.239 293.872C412.972 289.824 420.173 287.309 427.818 287.093C435.935 286.863 443.753 289.144 450.916 293.21C483.997 311.988 517.065 330.79 550.164 349.537C560.434 355.353 570.72 361.147 581.124 366.719C588.774 370.816 595.235 376.096 600.084 383.782C604.804 391.735 606.254 400.038 606.233 408.869C606.114 458.187 606.193 507.506 606.166 556.825C606.157 573.312 599.131 585.805 584.834 594.23C541.559 619.73 498.307 645.269 455.089 670.867C448.693 674.656 441.978 677.248 434.139 678.057Z" fill="#D6F0FF"/>
<path d="M434.139 678.057C420.119 678.815 409.608 671.123 398.618 664.979C362.993 645.065 327.353 625.173 292.001 604.781C282.174 599.113 271.159 595.052 263.214 586.463C259.262 582.19 256.956 577.03 256.961 570.959C256.999 514.981 256.986 459.002 256.979 403.024C256.979 398.377 257.989 393.968 259.921 389.374C264.213 379.218 271.993 373.026 280.977 367.812C301.669 355.806 322.212 343.542 342.816 331.384C363.969 318.901 385.189 306.528 406.239 293.872C412.972 289.824 420.173 287.309 427.818 287.093C435.935 286.863 443.753 289.144 450.916 293.21C483.997 311.988 517.065 330.79 550.164 349.537C560.434 355.353 570.72 361.147 581.124 366.719C588.774 370.816 595.235 376.096 600.084 383.782C604.804 391.735 606.254 400.038 606.233 408.869C606.114 458.187 606.193 507.506 606.166 556.825C606.157 573.312 599.131 585.805 584.834 594.23C541.559 619.73 498.307 645.269 455.089 670.867C448.693 674.656 441.978 677.248 434.139 678.057Z" fill="#D6F0FF"/>
<path d="M434.139 678.057C420.119 678.815 409.608 671.123 398.618 664.979C362.993 645.065 327.353 625.173 292.001 604.781C282.174 599.113 271.159 595.052 263.214 586.463C259.262 582.19 256.956 577.03 256.961 570.959C256.999 514.981 256.986 459.002 256.979 403.024C256.979 398.377 257.989 393.968 259.921 389.374C264.213 379.218 271.993 373.026 280.977 367.812C301.669 355.806 322.212 343.542 342.816 331.384C363.969 318.901 385.189 306.528 406.239 293.872C412.972 289.824 420.173 287.309 427.818 287.093C435.935 286.863 443.753 289.144 450.916 293.21C483.997 311.988 517.065 330.79 550.164 349.537C560.434 355.353 570.72 361.147 581.124 366.719C588.774 370.816 595.235 376.096 600.084 383.782C604.804 391.735 606.254 400.038 606.233 408.869C606.114 458.187 606.193 507.506 606.166 556.825C606.157 573.312 599.131 585.805 584.834 594.23C541.559 619.73 498.307 645.269 455.089 670.867C448.693 674.656 441.978 677.248 434.139 678.057Z" fill="#D6F0FF"/>
</svg>
